HIERARCHY
ROOT Hips
{
	OFFSET 0.000000 8.830580 0.000000
	CHANNELS 6 Xposition Yposition Zposition Zrotation Yrotation Xrotation 
	JOINT Spine
	{
		OFFSET 0.000000 0.010000 0.000000
		CHANNELS 3 Zrotation Yrotation Xrotation
		JOINT Spine1
		{
			OFFSET 0.000000 2.459130 0.000000
			CHANNELS 3 Zrotation Yrotation Xrotation
			JOINT Neck
			{
				OFFSET 0.000000 2.484630 0.000000
				CHANNELS 3 Zrotation Yrotation Xrotation
				JOINT Head_virtual
				{
					OFFSET 0.000000 0.000000 0.000000
					CHANNELS 3 Zrotation Yrotation Xrotation
					JOINT Head
					{
						OFFSET 0.000000 0.927525 0.000000
						CHANNELS 3 Zrotation Yrotation Xrotation
						End Site
						{
							OFFSET 0.000000 0.000000 0.000000
						}
					}
				}
				JOINT LeftUpArm_virtual
				{
					OFFSET 0.000000 0.000000 0.000000
					CHANNELS 3 Zrotation Yrotation Xrotation
					JOINT LeftUpArm
					{
						OFFSET 1.248820 0.000000 0.000000
						CHANNELS 3 Zrotation Yrotation Xrotation
						JOINT LeftForeArm
						{
							OFFSET 2.597580 0.000000 0.000000
							CHANNELS 3 Zrotation Yrotation Xrotation
							JOINT LeftHand
							{
								OFFSET 2.455420 0.000000 0.000000
								CHANNELS 3 Zrotation Yrotation Xrotation
								End Site
								{
									OFFSET 0.000000 0.000000 0.000000
								}
							}
						}
					}
				}
				JOINT RightUpArm_virtual
				{
					OFFSET -0.000000 -0.000000 -0.000000
					CHANNELS 3 Zrotation Yrotation Xrotation
					JOINT RightUpArm
					{
						OFFSET -1.248820 -0.000000 -0.000000
						CHANNELS 3 Zrotation Yrotation Xrotation
						JOINT RightForeArm
						{
							OFFSET -2.597580 -0.000000 -0.000000
							CHANNELS 3 Zrotation Yrotation Xrotation
							JOINT RightHand
							{
								OFFSET -2.455420 -0.000000 -0.000000
								CHANNELS 3 Zrotation Yrotation Xrotation
								End Site
								{
									OFFSET 0.000000 0.000000 0.000000
								}
							}
						}
					}
				}
			}
		}
	}
	JOINT LeftUpLeg
	{
		OFFSET 1.271939 0.000000 0.000000
		CHANNELS 3 Zrotation Yrotation Xrotation
		JOINT LeftLowLeg
		{
			OFFSET 0.000000 -4.342910 0.000000
			CHANNELS 3 Zrotation Yrotation Xrotation
			JOINT LeftFoot
			{
				OFFSET 0.000000 -4.487670 0.000000
				CHANNELS 3 Zrotation Yrotation Xrotation
				JOINT LeftToeBase
				{
					OFFSET 0.000000 0.000000 1.515070
					CHANNELS 3 Zrotation Yrotation Xrotation
					End Site
					{
						OFFSET 0.000000 0.000000 0.000000
					}
				}
			}
		}
	}
	JOINT RightUpLeg
	{
		OFFSET -1.271939 0.000000 0.000000
		CHANNELS 3 Zrotation Yrotation Xrotation
		JOINT RightLowLeg
		{
			OFFSET 0.000000 -4.342910 0.000000
			CHANNELS 3 Zrotation Yrotation Xrotation
			JOINT RightFoot
			{
				OFFSET 0.000000 -4.487670 0.000000
				CHANNELS 3 Zrotation Yrotation Xrotation
				JOINT RightToeBase
				{
					OFFSET 0.000000 0.000000 1.515070
					CHANNELS 3 Zrotation Yrotation Xrotation
					End Site
					{
						OFFSET 0.000000 0.000000 0.000000
					}
				}
			}
		}
	}
}
MOTION
Frames: 5
Frame Time: 0.041667
-14.236066 8.918537 21.187322 6.905609 -66.483641 1.362262 0.882280 -0.365982 -15.815831 -6.238604 5.191237 9.216250 0.000000 0.000000 0.000000 -14.803203 12.219447 -2.907314 -14.322925 6.410064 -94.282624 -22.193600 1.007360 7.259003 -34.106300 -11.264600 46.137100 0.000000 -25.044800 0.000000 39.993198 3.309590 18.924801 30.383900 -6.149790 1.691986 47.858200 -2.236830 10.148987 0.000000 19.102100 0.000000 6.638110 -6.530350 -18.078699 -3.890402 -11.174881 -10.295161 0.000000 0.000000 16.488001 -2.001705 12.866036 0.879277 0.000000 0.000000 -33.569000 -0.009703 11.774995 -11.889329 0.000000 0.000000 23.978500 31.642248 -6.024694 -17.427613 0.000000 0.000000 -18.390340 
-14.257149 8.923933 21.163414 5.835448 -65.311699 2.729748 0.886090 -0.951735 -15.802537 -5.873745 4.752871 9.665484 0.000000 0.000000 0.000000 -15.249407 11.772967 -5.814812 -14.536392 5.395025 -95.035068 -21.872601 0.580335 6.644989 -33.366501 -11.761900 45.324699 0.000000 -24.958599 0.000000 43.379398 3.991820 19.056801 30.145599 -6.005350 1.467987 48.141102 -2.472270 9.928009 0.000000 19.440100 0.000000 6.505810 -6.366620 -18.772699 -3.119184 -12.264548 -10.902262 0.000000 0.000000 16.791300 -2.323163 12.641317 0.762074 0.000000 0.000000 -33.546400 0.635079 10.359287 -11.459565 0.000000 0.000000 22.799400 31.633179 -5.962533 -17.167734 0.000000 0.000000 -18.598690 
-14.274596 8.925424 21.142157 5.736651 -65.297522 2.722563 0.649110 -0.995122 -15.249156 -5.489765 4.914941 9.832190 0.000000 0.000000 0.000000 -15.680057 11.486707 -8.138099 -14.634878 4.668484 -95.537051 -21.647100 0.134759 6.845001 -32.617001 -12.588400 43.864498 0.000000 -24.491899 0.000000 45.080700 5.269630 18.509600 29.805700 -5.757430 1.946991 48.390301 -2.257470 9.623993 0.000000 19.720400 0.000000 6.257970 -6.479860 -18.730499 -2.951763 -12.218679 -10.819140 0.000000 0.000000 16.902100 -2.462620 12.608428 0.723140 0.000000 0.000000 -33.556601 0.869311 10.317586 -11.152795 0.000000 0.000000 22.491600 31.598668 -6.007612 -17.192635 0.000000 0.000000 -18.453460 
-14.297940 8.925492 21.122025 5.613377 -65.223071 2.978158 0.472999 -1.067199 -15.068276 -5.218235 4.987403 9.884809 0.000000 0.000000 0.000000 -15.944975 11.362283 -9.650002 -14.685985 4.228124 -95.980711 -21.458300 -0.284037 6.967987 -32.017899 -13.174100 42.288300 0.000000 -23.664000 0.000000 45.946400 6.646560 19.601900 29.546301 -5.586850 2.251007 48.574501 -2.063420 9.983002 0.000000 19.856300 0.000000 5.638140 -6.647290 -18.652201 -2.725840 -12.360614 -10.959990 0.000000 0.000000 17.035601 -2.481404 12.792505 0.649215 0.000000 0.000000 -33.509501 1.074733 10.334535 -11.051997 0.000000 0.000000 22.202600 31.558305 -6.047687 -17.166778 0.000000 0.000000 -18.444280 
-14.326808 8.923801 21.105125 5.455431 -65.225043 3.125436 0.372651 -1.097514 -14.941505 -5.058498 5.045813 9.975622 0.000000 0.000000 0.000000 -16.181861 11.462049 -10.579620 -14.609092 4.081572 -96.338572 -21.275200 -0.681832 7.075012 -31.622801 -13.593800 40.424301 0.000000 -22.586500 0.000000 45.574799 7.840550 18.935900 29.392900 -5.461730 2.339996 48.619701 -1.894540 10.330994 0.000000 19.868601 0.000000 5.535200 -6.642000 -18.238199 -2.499848 -12.816369 -10.996758 0.000000 0.000000 17.336599 -2.747111 13.207039 0.431205 0.000000 0.000000 -33.514299 1.339976 10.245626 -10.848229 0.000000 0.000000 22.034401 31.407906 -6.099260 -17.074493 0.000000 0.000000 -18.271570 
